<svg width="100%" height="100%" viewBox="0 0 469 1313" version="1.1" xmlns="http://www.w3.org/2000/svg" xmlns:xlink="http://www.w3.org/1999/xlink" xml:space="preserve" xmlns:serif="http://www.serif.com/" style="fill-rule:evenodd;clip-rule:evenodd;">
<path id="Treble-Clef" serif:id="Treble Clef" d="M268.86,721.876c-19.489,3.997 -37.551,14.691 -54.79,31.725c-17.26,17.348 -26.5,37.134 -28.01,59.024c-0.95,13.76 2.674,29.72 10.621,46.922c7.926,17.514 20.878,30.662 38.206,39.713c5.87,1.662 8.476,4.983 8.174,9.362c-0.108,1.563 -2.41,2.975 -7.826,3.859c-28.03,-9.161 -50.484,-26.107 -67.091,-50.19c-16.585,-24.396 -24.177,-51.313 -22.732,-81.378c3.163,-32.145 14.952,-61.496 35.346,-87.739c20.729,-26.534 46.227,-44.57 76.492,-54.108l-13.97,-112.508c-51.038,36.697 -93.093,75.586 -126.521,117.268c-33.407,41.37 -52.339,87.51 -57.11,138.397c-0.949,22.871 2.222,45.399 9.532,67.27c7.288,22.183 19.117,42.48 35.442,61.516c32.985,37.782 77.793,59.412 133.777,65.16c19.209,0.069 39.822,-1.965 62.154,-6.08l-31.694,-248.213Zm22.786,-1.57l32.31,243.857c49.614,-16.058 76.665,-56.61 81.11,-121.03c-1.333,-21.773 -6.264,-41.594 -15.736,-59.529c-9.136,-18.226 -21.98,-32.938 -38.845,-44.156c-16.864,-11.218 -36.268,-17.584 -58.839,-19.142Zm-41.823,-329.663c10.777,-5.541 23.444,-15.664 37.354,-30.1c13.889,-14.124 27.658,-31.084 40.951,-50.276c13.628,-19.484 24.77,-39.453 33.426,-59.907c8.634,-20.142 13.442,-39.606 14.693,-57.744c0.54,-7.818 0.452,-15.679 -0.641,-22.667c-0.477,-11.344 -3.321,-20.338 -8.867,-26.691c-5.568,-6.04 -12.876,-9.686 -22.28,-10.335c-18.809,-1.298 -36.535,9.105 -53.179,31.208c-12.98,19.213 -24.337,42.31 -33.09,68.728c-9.087,26.709 -15.018,53.322 -17.522,80.485c-0.569,31.068 2.699,56.744 9.155,77.299Zm-21.001,16.775c-10.611,-51.634 -14.887,-103.774 -12.83,-156.419c2.644,-33.752 8.272,-65.099 16.883,-94.04c8.298,-28.963 19.137,-53.667 32.559,-74.735c13.11,-21.09 27.733,-36.734 43.557,-46.954c14.17,-9.077 24.254,-13.723 29.584,-13.355c4.075,0.281 7.415,2.083 10.356,5.114c2.941,3.03 6.692,8.002 11.276,14.603c33.658,55.424 48.065,120.516 42.929,194.944c-2.438,35.337 -9.513,69.412 -21.291,103.162c-11.443,33.46 -27.167,65.052 -47.128,94.153c-20.297,29.392 -43.448,54.503 -69.788,75.623l16.891,124.964c13.901,-0.612 23.391,-1.214 28.721,-0.847c23.824,1.644 44.796,8.119 63.854,19.488c19.059,11.37 35.059,25.985 47.666,44.136c12.628,17.839 21.948,37.963 27.961,60.373c5.7,22.388 8.2,45.497 6.56,69.264c-2.546,36.901 -14.594,70.004 -36.123,98.997c-21.529,28.993 -52.214,49.185 -92.392,60.866c1.45,15.496 4.307,38.002 8.927,66.914c4.284,29.203 7.411,52.356 9.381,69.459c1.97,17.103 2.101,33.451 1.001,49.4c-1.705,24.705 -9.171,46.185 -22.421,64.751c-13.564,18.545 -30.9,32.431 -52.324,41.636c-21.11,9.227 -44.047,12.985 -68.499,11.298c-34.482,-2.379 -63.908,-14.15 -88.297,-34.999c-24.368,-21.163 -36.37,-48.07 -35.336,-81.305c1.954,-14.633 6.352,-28.155 13.528,-40.856c7.176,-12.702 16.373,-22.75 27.906,-30.124c11.241,-7.708 24.396,-11.199 39.194,-11.121c12.226,0.844 23.587,5.084 34.106,12.408c10.184,7.615 18.335,17.29 24.12,29.315c5.471,12.003 8.035,25.062 7.085,38.822c-1.273,18.451 -8.621,33.654 -22.045,45.61c-13.424,11.956 -29.865,17.421 -48.987,16.101l-7.21,-0.497c10.931,19.607 30.325,30.685 58.225,32.61c14.106,0.973 28.742,-1.159 43.551,-5.793c15.143,-4.925 27.909,-11.899 38.944,-21.193c11.035,-9.293 18.665,-19.45 22.264,-30.513c6.213,-12.454 9.951,-30.105 11.483,-52.309c1.036,-15.01 0.504,-30.129 -1.281,-45.334c-1.808,-14.893 -4.837,-34.897 -9.11,-59.7c-4.295,-24.491 -7.389,-43.557 -9.012,-56.551c-19.133,3.393 -38.741,4.554 -59.117,3.148c-34.17,-2.358 -65.983,-11.466 -95.42,-27.636c-29.437,-16.171 -54.745,-37.398 -76.216,-64.016c-21.158,-26.597 -37.084,-55.975 -47.736,-88.759c-10.36,-32.45 -14.656,-66.052 -12.596,-100.473c3.455,-31.811 11.526,-62.047 24.796,-90.038c13.292,-28.305 29.611,-54.829 49.249,-79.239c19.637,-24.411 39.751,-46.588 60.319,-66.221c20.86,-19.299 48.086,-44.128 82.283,-74.132Z" style="fill:#131516;stroke:#131516;stroke-width:0.94px;"/>
</svg>