<svg width="100%" height="100%" viewBox="0 0 298 184" 
    version="1.1" 
    xmlns="http://www.w3.org/2000/svg" 
    xmlns:xlink="http://www.w3.org/1999/xlink" 
    xml:space="preserve" 
    xmlns:serif="http://www.serif.com/" 
    style="fill-rule:evenodd;clip-rule:evenodd;stroke-linejoin:round;stroke-miterlimit:2;">
    <path id="whole_note" d="M90.169,76.162c-0,-22.761 3.209,-38.227 9.629,-46.398c6.42,-8.17 16.341,-13.131 29.765,-14.882c21.593,0 39.102,8.754 52.525,26.263c4.085,4.669 7.733,9.629 10.943,14.882c3.21,5.253 5.69,10.797 7.441,16.633c1.751,5.253 3.21,10.797 4.377,16.633c1.167,5.836 1.751,11.672 1.751,17.509c-0,23.928 -2.627,39.685 -7.879,47.272c-6.42,8.171 -17.509,13.132 -33.266,14.883c-20.427,-0 -37.643,-9.047 -51.65,-27.139c-4.085,-4.669 -7.441,-9.483 -10.067,-14.444c-2.627,-4.961 -5.107,-9.776 -7.442,-14.445c-2.918,-8.17 -4.668,-14.152 -5.252,-17.946c-0.584,-3.793 -0.875,-10.067 -0.875,-18.821Zm-90.169,15.757c-0,22.178 8.754,40.27 26.263,54.277c16.925,14.006 36.767,23.782 59.528,29.326c22.761,5.545 44.355,8.317 64.782,8.317c9.921,-0 20.426,-0.73 31.515,-2.189c11.089,-1.459 22.469,-3.939 34.141,-7.441c23.345,-7.003 42.604,-17.217 57.778,-30.64c15.758,-14.006 23.637,-31.223 23.637,-51.65c-0,-23.344 -9.046,-41.436 -27.138,-54.276c-17.509,-14.59 -37.644,-24.22 -60.405,-28.889c-19.259,-5.836 -40.853,-8.754 -64.781,-8.754c-9.921,0 -20.135,0.875 -30.64,2.626c-5.836,1.167 -11.38,2.189 -16.633,3.064c-5.252,0.876 -10.213,1.897 -14.882,3.064c-21.01,5.253 -39.977,14.882 -56.902,28.889c-17.509,14.007 -26.263,32.099 -26.263,54.276Z" 
    style="fill-rule:nonzero;"/>
</svg>